{
  "source": "C:\\Users\\Peter\\Desktop\\stuff\\MIUN\\quantitative_research\\video_compression\\videos\\BVI-HD\\BVI-HD_CDVL_videos\\ORIG\\TreeTrunk_1920x1080_50fps.mp4",
  "output": "C:\\Users\\Peter\\Desktop\\stuff\\MIUN\\quantitative_research\\video_compression\\compressed_videos\\BVI-HD\\h264\\8\\TreeTrunk_1920x1080_50fps_h264.mp4",
  "codec": "h264",
  "ok": "Input #0, mov,mp4,m4a,3gp,3g2,mj2, from 'C:\\Users\\Peter\\Desktop\\stuff\\MIUN\\quantitative_research\\video_compression\\videos\\BVI-HD\\BVI-HD_CDVL_videos\\ORIG\\TreeTrunk_1920x1080_50fps.mp4':\n  Metadata:\n    major_brand     : isom\n    minor_version   : 512\n    compatible_brands: isomiso2avc1mp41\n    encoder         : Lavf54.28.101\n  Duration: 00:00:05.00, start: 0.000000, bitrate: 622415 kb/s\n  Stream #0:0[0x1](und): Video: h264 (High 4:4:4 Predictive) (avc1 / 0x31637661), yuv420p(progressive), 1920x1080, 622410 kb/s, 50 fps, 50 tbr, 50 tbn (default)\n    Metadata:\n      handler_name    : VideoHandler\n      vendor_id       : [0][0][0][0]\n[out#0/mp4 @ 000002c0eba5f740] Codec AVOption b:a (set bitrate (in bits/s)) has not been used for any stream. The most likely reason is either wrong type (e.g. a video option with no video streams) or that it is a private option of some decoder which was not actually used for any stream.\nStream mapping:\n  Stream #0:0 -> #0:0 (h264 (native) -> h264 (libx264))\nPress [q] to stop, [?] for help\n[libx264 @ 000002c0ec660340] using cpu capabilities: MMX2 SSE2Fast SSSE3 SSE4.2 AVX FMA3 BMI2 AVX2\n[libx264 @ 000002c0ec660340] profile High, level 5.0, 4:2:0, 8-bit\n[libx264 @ 000002c0ec660340] 264 - core 165 r3222 b35605a - H.264/MPEG-4 AVC codec - Copyleft 2003-2025 - http://www.videolan.org/x264.html - options: cabac=1 ref=5 deblock=1:0:0 analyse=0x3:0x113 me=hex subme=8 psy=1 psy_rd=1.00:0.00 mixed_ref=1 me_range=16 chroma_me=1 trellis=2 8x8dct=1 cqm=0 deadzone=21,11 fast_pskip=1 chroma_qp_offset=-2 threads=18 lookahead_threads=3 sliced_threads=0 nr=0 decimate=1 interlaced=0 bluray_compat=0 constrained_intra=0 bframes=3 b_pyramid=2 b_adapt=1 b_bias=0 direct=3 weightb=1 open_gop=0 weightp=2 keyint=250 keyint_min=25 scenecut=40 intra_refresh=0 rc_lookahead=50 rc=cbr mbtree=1 bitrate=8000 ratetol=1.0 qcomp=0.60 qpmin=0 qpmax=69 qpstep=4 vbv_maxrate=8000 vbv_bufsize=8000 nal_hrd=none filler=0 ip_ratio=1.40 aq=1:1.00\nOutput #0, mp4, to 'C:\\Users\\Peter\\Desktop\\stuff\\MIUN\\quantitative_research\\video_compression\\compressed_videos\\BVI-HD\\h264\\8\\TreeTrunk_1920x1080_50fps_h264.mp4':\n  Metadata:\n    major_brand     : isom\n    minor_version   : 512\n    compatible_brands: isomiso2avc1mp41\n    encoder         : Lavf62.3.100\n  Stream #0:0(und): Video: h264 (avc1 / 0x31637661), yuv420p(tv, progressive), 1920x1080, q=2-31, 8000 kb/s, 50 fps, 12800 tbn (default)\n    Metadata:\n      encoder         : Lavc62.11.100 libx264\n      handler_name    : VideoHandler\n      vendor_id       : [0][0][0][0]\n    Side data:\n      cpb: bitrate max/min/avg: 8000000/0/8000000 buffer size: 8000000 vbv_delay: N/A\nframe=    0 fps=0.0 q=0.0 size=       0KiB time=N/A bitrate=N/A speed=N/A elapsed=0:00:01.13    \nframe=    0 fps=0.0 q=0.0 size=       0KiB time=N/A bitrate=N/A speed=N/A elapsed=0:00:01.71    \nframe=    0 fps=0.0 q=0.0 size=       0KiB time=N/A bitrate=N/A speed=N/A elapsed=0:00:02.30    \nframe=    0 fps=0.0 q=0.0 size=       0KiB time=N/A bitrate=N/A speed=N/A elapsed=0:00:02.88    \nframe=   21 fps=6.1 q=30.0 size=     256KiB time=00:00:00.38 bitrate=5519.8kbits/s speed=0.111x elapsed=0:00:03.42    \nframe=   37 fps=9.2 q=32.0 size=     512KiB time=00:00:00.70 bitrate=5992.4kbits/s speed=0.175x elapsed=0:00:04.00    \nframe=   45 fps=9.8 q=31.0 size=     512KiB time=00:00:00.86 bitrate=4877.5kbits/s speed=0.187x elapsed=0:00:04.61    \nframe=   61 fps= 12 q=39.0 size=     768KiB time=00:00:01.10 bitrate=5719.9kbits/s speed=0.213x elapsed=0:00:05.16    \nframe=   73 fps= 13 q=41.0 size=    1024KiB time=00:00:01.42 bitrate=5907.7kbits/s speed=0.246x elapsed=0:00:05.77    \nframe=   93 fps= 15 q=34.0 size=    1280KiB time=00:00:01.74 bitrate=6026.5kbits/s speed=0.274x elapsed=0:00:06.34    \nframe=  109 fps= 16 q=35.0 size=    1536KiB time=00:00:02.14 bitrate=5880.0kbits/s speed=0.307x elapsed=0:00:06.97    \nframe=  125 fps= 17 q=36.0 size=    1792KiB time=00:00:02.38 bitrate=6168.3kbits/s speed=0.314x elapsed=0:00:07.57    \nframe=  133 fps= 16 q=36.0 size=    1792KiB time=00:00:02.62 bitrate=5603.2kbits/s speed=0.319x elapsed=0:00:08.20    \nframe=  141 fps= 16 q=38.0 size=    2048KiB time=00:00:02.78 bitrate=6035.1kbits/s speed=0.318x elapsed=0:00:08.74    \nframe=  153 fps= 16 q=42.0 size=    2304KiB time=00:00:03.02 bitrate=6249.9kbits/s speed=0.324x elapsed=0:00:09.30    \nframe=  165 fps= 17 q=42.0 size=    2560KiB time=00:00:03.20 bitrate=6553.7kbits/s speed=0.325x elapsed=0:00:09.83    \nframe=  181 fps= 17 q=44.0 size=    2816KiB time=00:00:03.50 bitrate=6591.2kbits/s speed=0.337x elapsed=0:00:10.38    \nframe=  185 fps= 17 q=44.0 size=    2816KiB time=00:00:03.66 bitrate=6303.0kbits/s speed=0.333x elapsed=0:00:10.99    \nframe=  201 fps= 17 q=43.0 size=    3328KiB time=00:00:03.98 bitrate=6850.1kbits/s speed=0.345x elapsed=0:00:11.54    \nframe=  213 fps= 18 q=42.0 size=    3584KiB time=00:00:04.22 bitrate=6957.5kbits/s speed=0.348x elapsed=0:00:12.12    \nframe=  221 fps= 17 q=42.0 size=    3584KiB time=00:00:04.38 bitrate=6703.3kbits/s speed=0.345x elapsed=0:00:12.69    \nframe=  234 fps= 18 q=-1.0 size=    4096KiB time=00:00:04.62 bitrate=7262.9kbits/s speed=0.349x elapsed=0:00:13.24    \nframe=  239 fps= 17 q=-1.0 size=    4096KiB time=00:00:04.74 bitrate=7079.1kbits/s speed=0.343x elapsed=0:00:13.80    \n[mp4 @ 000002c0eba5f840] Starting second pass: moving the moov atom to the beginning of the file\n[out#0/mp4 @ 000002c0eba5f740] video:4444KiB audio:0KiB subtitle:0KiB other streams:0KiB global headers:0KiB muxing overhead: 0.086033%\nframe=  250 fps= 18 q=-1.0 Lsize=    4448KiB time=00:00:04.96 bitrate=7345.9kbits/s speed=0.353x elapsed=0:00:14.03    \n[libx264 @ 000002c0ec660340] frame I:1     Avg QP:29.04  size:294551\n[libx264 @ 000002c0ec660340] frame P:63    Avg QP:36.34  size: 62543\n[libx264 @ 000002c0ec660340] frame B:186   Avg QP:38.85  size:  1694\n[libx264 @ 000002c0ec660340] consecutive B-frames:  0.4%  0.8%  1.2% 97.6%\n[libx264 @ 000002c0ec660340] mb I  I16..4:  2.9% 89.6%  7.5%\n[libx264 @ 000002c0ec660340] mb P  I16..4:  0.1% 14.8%  0.7%  P16..4: 40.4% 13.8%  6.5%  0.0%  0.0%    skip:23.7%\n[libx264 @ 000002c0ec660340] mb B  I16..4:  0.0%  0.0%  0.0%  B16..8: 24.9%  0.5%  0.1%  direct: 0.1%  skip:74.3%  L0:50.8% L1:49.0% BI: 0.2%\n[libx264 @ 000002c0ec660340] 8x8 transform intra:94.7% inter:81.4%\n[libx264 @ 000002c0ec660340] direct mvs  spatial:94.6% temporal:5.4%\n[libx264 @ 000002c0ec660340] coded y,uvDC,uvAC intra: 94.9% 35.8% 8.3% inter: 9.3% 3.4% 0.0%\n[libx264 @ 000002c0ec660340] i16 v,h,dc,p: 16% 26%  5% 53%\n[libx264 @ 000002c0ec660340] i8 v,h,dc,ddl,ddr,vr,hd,vl,hu:  6%  4%  2% 11% 22% 16% 18% 10% 11%\n[libx264 @ 000002c0ec660340] i4 v,h,dc,ddl,ddr,vr,hd,vl,hu: 10%  2%  1% 10% 20% 16% 17% 11% 13%\n[libx264 @ 000002c0ec660340] i8c dc,h,v,p: 67% 18%  8%  7%\n[libx264 @ 000002c0ec660340] Weighted P-Frames: Y:0.0% UV:0.0%\n[libx264 @ 000002c0ec660340] ref P L0: 59.5% 14.6% 12.5%  6.2%  7.2%\n[libx264 @ 000002c0ec660340] ref B L0: 88.4% 11.2%  0.3%  0.1%\n[libx264 @ 000002c0ec660340] ref B L1: 97.6%  2.4%\n[libx264 @ 000002c0ec660340] kb/s:7279.67\n",
  "seconds": 14.60655951499939,
  "probe_out": {}
}